<?xml version="1.0" encoding="UTF-8"?>
<!DOCTYPE svg PUBLIC "-//W3C//DTD SVG 1.1//EN" "http://www.w3.org/Graphics/SVG/1.1/DTD/svg11.dtd">
<!-- Creator: CorelDRAW 2020 (64-Bit) -->
<svg xmlns="http://www.w3.org/2000/svg" xml:space="preserve" width="960px" height="960px" version="1.1" style="shape-rendering:geometricPrecision; text-rendering:geometricPrecision; image-rendering:optimizeQuality; fill-rule:evenodd; clip-rule:evenodd"
viewBox="0 0 960 960"
 xmlns:xlink="http://www.w3.org/1999/xlink"
 xmlns:xodm="http://www.corel.com/coreldraw/odm/2003">
 <defs>
  <style type="text/css">
   <![CDATA[
    .fil1 {fill:#FEFEFE;fill-rule:nonzero}
    .fil0 {fill:#0079A8;fill-rule:nonzero}
    .fil2 {fill:#011F4B;fill-rule:nonzero}
   ]]>
  </style>
 </defs>
 <g id="Layer_x0020_1">
  <metadata id="CorelCorpID_0Corel-Layer"/>
  <g id="_2237322507120">
   <polygon class="fil0" points="0.289,959.195 958.087,959.195 958.087,0 0.289,0 "/>
   <polygon class="fil1" points="798.881,237.927 798.881,95.306 958.388,0 958.517,0 958.517,142.558 "/>
   <polygon class="fil2" points="638.98,0 638.98,142.558 798.649,237.927 798.649,95.306 639.108,0 "/>
   <polygon class="fil1" points="479.185,237.927 479.185,95.306 638.705,0 638.834,0 638.834,142.558 "/>
   <polygon class="fil2" points="319.308,0 319.308,142.558 478.952,237.927 478.952,95.306 319.436,0 "/>
   <polygon class="fil1" points="159.521,237.927 159.521,95.306 319.052,0 319.181,0 319.181,142.558 "/>
   <polygon class="fil2" points="-0.362,0 -0.362,142.558 159.29,237.927 159.29,95.306 -0.234,0 "/>
   <polygon class="fil2" points="798.881,239.142 798.881,381.77 958.517,477.153 958.517,334.518 "/>
   <polygon class="fil1" points="638.98,477.153 638.98,334.518 798.649,239.142 798.649,381.77 "/>
   <polygon class="fil2" points="479.185,239.142 479.185,381.77 638.834,477.153 638.834,334.518 "/>
   <polygon class="fil1" points="319.308,477.153 319.308,334.518 478.952,239.142 478.952,381.77 "/>
   <polygon class="fil2" points="159.521,239.142 159.521,381.77 319.181,477.153 319.181,334.518 "/>
   <polygon class="fil1" points="-0.362,477.153 -0.362,334.518 159.29,239.142 159.29,381.77 "/>
   <polygon class="fil1" points="798.881,720.771 798.881,578.146 958.517,482.777 958.517,625.406 "/>
   <polygon class="fil2" points="638.98,482.777 638.98,625.406 798.649,720.771 798.649,578.146 "/>
   <polygon class="fil1" points="479.185,720.771 479.185,578.146 638.834,482.777 638.834,625.406 "/>
   <polygon class="fil2" points="319.308,482.777 319.308,625.406 478.952,720.771 478.952,578.146 "/>
   <polygon class="fil1" points="159.521,720.771 159.521,578.146 319.181,482.777 319.181,625.406 "/>
   <polygon class="fil2" points="-0.362,482.777 -0.362,625.406 159.29,720.771 159.29,578.146 "/>
   <polygon class="fil2" points="798.881,721.989 798.881,864.624 958.517,960 958.517,817.356 "/>
   <polygon class="fil1" points="638.98,960 638.98,817.356 798.649,721.989 798.649,864.624 "/>
   <polygon class="fil2" points="479.185,721.989 479.185,864.624 638.834,960 638.834,817.356 "/>
   <polygon class="fil1" points="319.308,960 319.308,817.356 478.952,721.989 478.952,864.624 "/>
   <polygon class="fil2" points="159.521,721.989 159.521,864.624 319.181,960 319.181,817.356 "/>
   <polygon class="fil1" points="-0.362,960 -0.362,817.356 159.29,721.989 159.29,864.624 "/>
  </g>
 </g>
</svg>
